<svg viewBox="0 0 800 380" xmlns="http://www.w3.org/2000/svg">
  <defs>
    <linearGradient id="bgGrad" x1="0%" y1="0%" x2="100%" y2="100%">
      <stop offset="0%" stop-color="#0B1320"/>
      <stop offset="100%" stop-color="#16223A"/>
    </linearGradient>
    <linearGradient id="accentGrad" x1="0%" y1="0%" x2="100%" y2="0%">
      <stop offset="0%" stop-color="#FF8A3D"/>
      <stop offset="100%" stop-color="#3ECBB5"/>
    </linearGradient>
  </defs>
  <rect x="0" y="0" width="800" height="380" rx="28" fill="url(#bgGrad)"/>
  <g opacity="0.18" fill="#9AA5BF">
    <rect x="40" y="300" width="26" height="60"/>
    <rect x="75" y="280" width="22" height="80"/>
    <rect x="105" y="310" width="30" height="50"/>
    <rect x="145" y="270" width="20" height="90"/>
    <rect x="175" y="295" width="24" height="65"/>
  </g>
  <g stroke="#3ECBB5" stroke-width="1.4" opacity="0.6">
    <line x1="430" y1="90" x2="500" y2="60"/>
    <line x1="500" y1="60" x2="570" y2="95"/>
    <line x1="430" y1="90" x2="470" y2="140"/>
    <line x1="470" y1="140" x2="540" y2="120"/>
    <line x1="540" y1="120" x2="570" y2="95"/>
    <line x1="470" y1="140" x2="500" y2="60"/>
  </g>
  <g fill="#FF8A3D">
    <circle cx="430" cy="90" r="6"/>
    <circle cx="500" cy="60" r="6"/>
    <circle cx="570" cy="95" r="6"/>
  </g>
  <g fill="#3ECBB5">
    <circle cx="470" cy="140" r="6"/>
    <circle cx="540" cy="120" r="6"/>
  </g>
  <g transform="translate(560,40)">
    <ellipse cx="0" cy="0" rx="46" ry="36" fill="none" stroke="url(#accentGrad)" stroke-width="2.5"/>
    <path d="M -20 -10 Q 0 -30 20 -10" stroke="url(#accentGrad)" stroke-width="2" fill="none"/>
    <path d="M -20 10 Q 0 26 20 10" stroke="url(#accentGrad)" stroke-width="2" fill="none"/>
    <line x1="46" y1="0" x2="80" y2="0" stroke="#3ECBB5" stroke-width="2"/>
    <circle cx="84" cy="0" r="4" fill="#3ECBB5"/>
  </g>
  <g transform="translate(120,170)">
    <rect x="0" y="0" width="220" height="140" rx="10" fill="#111A2C" stroke="#30406A" stroke-width="2"/>
    <rect x="14" y="16" width="120" height="8" rx="4" fill="#FF8A3D" opacity="0.85"/>
    <rect x="14" y="36" width="160" height="8" rx="4" fill="#3ECBB5" opacity="0.75"/>
    <rect x="14" y="56" width="90" height="8" rx="4" fill="#F5F1E8" opacity="0.55"/>
    <rect x="14" y="76" width="140" height="8" rx="4" fill="#3ECBB5" opacity="0.55"/>
    <rect x="14" y="96" width="70" height="8" rx="4" fill="#FF8A3D" opacity="0.55"/>
    <path d="M -16 140 L 236 140 L 256 168 L -36 168 Z" fill="#0E1726" stroke="#30406A" stroke-width="2"/>
  </g>
  <g transform="translate(640,210)" fill="#FF8A3D" opacity="0.85">
    <rect x="0" y="40" width="14" height="30" rx="3"/>
    <rect x="20" y="20" width="14" height="50" rx="3" fill="#3ECBB5"/>
    <rect x="40" y="0" width="14" height="70" rx="3"/>
  </g>
</svg>
